<svg width="66" height="68" viewBox="0 0 66 68" fill="none" xmlns="http://www.w3.org/2000/svg">
<path d="M7.84375 43.8438C7.19478 43.8438 6.56039 44.0362 6.02079 44.3967C5.48119 44.7573 5.06062 45.2698 4.81227 45.8693C4.56392 46.4689 4.49894 47.1286 4.62555 47.7651C4.75216 48.4016 5.06467 48.9863 5.52356 49.4452C5.98245 49.9041 6.56711 50.2166 7.20361 50.3432C7.84011 50.4698 8.49986 50.4048 9.09943 50.1565C9.699 49.9081 10.2115 49.4876 10.572 48.948C10.9326 48.4084 11.125 47.774 11.125 47.125C11.124 46.2551 10.778 45.421 10.1629 44.8059C9.54772 44.1907 8.71369 43.8447 7.84375 43.8438ZM7.84375 48.2188C7.62743 48.2188 7.41596 48.1546 7.2361 48.0344C7.05623 47.9142 6.91604 47.7434 6.83326 47.5436C6.75047 47.3437 6.72881 47.1238 6.77102 46.9116C6.81322 46.6995 6.91739 46.5046 7.07035 46.3516C7.22332 46.1986 7.4182 46.0945 7.63037 46.0523C7.84254 46.0101 8.06245 46.0317 8.26231 46.1145C8.46217 46.1973 8.63299 46.3375 8.75317 46.5173C8.87335 46.6972 8.9375 46.9087 8.9375 47.125C8.93718 47.415 8.82184 47.693 8.61679 47.898C8.41174 48.1031 8.13373 48.2184 7.84375 48.2188Z" fill="#EBEBEB"/>
<path d="M49.4063 43.8438C48.7573 43.8438 48.1229 44.0362 47.5833 44.3967C47.0437 44.7573 46.6231 45.2698 46.3748 45.8693C46.1264 46.4689 46.0614 47.1286 46.188 47.7651C46.3147 48.4016 46.6272 48.9863 47.0861 49.4452C47.5449 49.9041 48.1296 50.2166 48.7661 50.3432C49.4026 50.4698 50.0624 50.4048 50.6619 50.1565C51.2615 49.9081 51.774 49.4876 52.1345 48.948C52.4951 48.4084 52.6875 47.774 52.6875 47.125C52.6865 46.2551 52.3405 45.421 51.7254 44.8059C51.1102 44.1907 50.2762 43.8447 49.4063 43.8438ZM49.4063 48.2188C49.1899 48.2188 48.9785 48.1546 48.7986 48.0344C48.6187 47.9142 48.4785 47.7434 48.3958 47.5436C48.313 47.3437 48.2913 47.1238 48.3335 46.9116C48.3757 46.6995 48.4799 46.5046 48.6329 46.3516C48.7858 46.1986 48.9807 46.0945 49.1929 46.0523C49.405 46.0101 49.625 46.0317 49.8248 46.1145C50.0247 46.1973 50.1955 46.3375 50.3157 46.5173C50.4359 46.6972 50.5 46.9087 50.5 47.125C50.4997 47.415 50.3843 47.693 50.1793 47.898C49.9742 48.1031 49.6962 48.2184 49.4063 48.2188Z" fill="#EBEBEB"/>
<path d="M57.0625 47.125C57.0625 46.1086 56.8601 45.1024 56.4672 44.165C56.0742 43.2276 55.4985 42.3779 54.7737 41.6653C54.0489 40.9528 53.1895 40.3916 52.2456 40.0147C51.3016 39.6378 50.2921 39.4526 49.2758 39.4699C45.1261 39.5392 41.75 43.0217 41.75 47.233V50.9074C38.7538 50.0918 34.384 49.3125 28.625 49.3125C22.866 49.3125 18.4962 50.0918 15.5 50.9074V47.125C15.5 46.0946 15.292 45.0747 14.8884 44.1266C14.4849 43.1784 13.8941 42.3215 13.1514 41.6071C12.4088 40.8928 11.5296 40.3357 10.5665 39.9692C9.60336 39.6028 8.5762 39.4345 7.54652 39.4745C5.62231 39.5556 3.79872 40.3564 2.4369 41.7182C1.07507 43.08 0.274323 44.9036 0.193237 46.8278C0.120237 48.7187 0.749727 50.5698 1.96039 52.0242C3.17105 53.4786 4.87719 54.4334 6.75 54.7046V59.1563C6.7513 60.3162 7.21265 61.4282 8.03284 62.2484C8.85303 63.0686 9.96507 63.53 11.125 63.5313V66.8125C11.125 67.1026 11.2402 67.3808 11.4453 67.5859C11.6505 67.791 11.9287 67.9063 12.2187 67.9063H15.5C15.7031 67.9063 15.9022 67.8497 16.075 67.7429C16.2477 67.6362 16.3874 67.4834 16.4782 67.3017L18.3634 63.5313H38.8866L40.7718 67.3017C40.8626 67.4834 41.0022 67.6362 41.175 67.7429C41.3478 67.8497 41.5469 67.9063 41.75 67.9063H45.0312C45.3213 67.9063 45.5995 67.791 45.8046 67.5859C46.0098 67.3808 46.125 67.1026 46.125 66.8125V63.5313C47.2849 63.53 48.397 63.0686 49.2171 62.2484C50.0373 61.4282 50.4987 60.3162 50.5 59.1563V54.7033C52.3213 54.438 53.9863 53.5264 55.1912 52.1351C56.396 50.7438 57.0602 48.9655 57.0625 47.125ZM14.8241 65.7188H13.3125V63.5313H15.9178L14.8241 65.7188ZM43.9375 65.7188H42.4259L41.3322 63.5313H43.9375V65.7188ZM49.4062 52.5938C49.1162 52.5938 48.838 52.709 48.6328 52.9141C48.4277 53.1192 48.3125 53.3974 48.3125 53.6875V59.1563C48.3118 59.7362 48.0811 60.2922 47.671 60.7023C47.2609 61.1124 46.7049 61.3431 46.125 61.3438H11.125C10.545 61.3431 9.98905 61.1124 9.57896 60.7023C9.16887 60.2922 8.93818 59.7362 8.9375 59.1563V53.6875C8.9375 53.3974 8.82226 53.1192 8.61714 52.9141C8.41203 52.709 8.13383 52.5938 7.84375 52.5938C7.10755 52.5938 6.37893 52.4452 5.70155 52.1568C5.02418 51.8684 4.41201 51.4463 3.90173 50.9156C3.39144 50.3849 2.99356 49.7567 2.73192 49.0686C2.47028 48.3804 2.35027 47.6466 2.3791 46.9109C2.43705 45.5371 3.00878 44.2352 3.98107 43.2629C4.95335 42.2906 6.2553 41.7189 7.6291 41.6609C8.36473 41.632 9.09862 41.752 9.78679 42.0135C10.475 42.2751 11.1032 42.6729 11.6339 43.1832C12.1646 43.6934 12.5869 44.3055 12.8753 44.9829C13.1637 45.6602 13.3124 46.3888 13.3125 47.125V51.5821C11.5883 52.1836 10.6823 52.6816 10.5888 52.7342L11.6589 54.6421C11.7153 54.6107 17.4404 51.5 28.625 51.5C39.8095 51.5 45.5346 54.6107 45.5888 54.6409L46.6612 52.7342C46.5677 52.6816 45.6617 52.1831 43.9375 51.5821V47.233C43.9375 44.208 46.3487 41.7066 49.3123 41.6571C50.0344 41.6446 50.7518 41.7752 51.4231 42.0415C52.0944 42.3077 52.7064 42.7043 53.2236 43.2083C53.7408 43.7123 54.1531 44.3137 54.4367 44.9779C54.7202 45.6421 54.8694 46.3559 54.8756 47.0781C54.8818 47.8002 54.7449 48.5165 54.4728 49.1854C54.2007 49.8544 53.7988 50.4628 53.2903 50.9757C52.7818 51.4885 52.1768 51.8955 51.5101 52.1732C50.8435 52.4509 50.1284 52.5939 49.4062 52.5938Z" fill="#EBEBEB"/>
<path d="M8.9375 31.8125C8.93819 31.2325 9.16888 30.6766 9.57896 30.2665C9.98905 29.8564 10.545 29.6257 11.125 29.625H46.125C46.7049 29.6257 47.261 29.8564 47.671 30.2665C48.0811 30.6766 48.3118 31.2325 48.3125 31.8125V37.2812H50.5V31.8125C50.4987 30.6526 50.0373 29.5405 49.2172 28.7203C48.397 27.9002 47.2849 27.4388 46.125 27.4375H11.125C9.96508 27.4388 8.85304 27.9002 8.03285 28.7203C7.21266 29.5405 6.7513 30.6526 6.75 31.8125V37.2812H8.9375V31.8125Z" fill="#EBEBEB"/>
<path d="M22.0625 34H24.25V36.1875H22.0625V34Z" fill="#EBEBEB"/>
<path d="M27.5312 39.4688H29.7188V41.6562H27.5312V39.4688Z" fill="#EBEBEB"/>
<path d="M16.5938 39.4688H18.7812V41.6562H16.5938V39.4688Z" fill="#EBEBEB"/>
<path d="M22.0625 44.9375H24.25V47.125H22.0625V44.9375Z" fill="#EBEBEB"/>
<path d="M33 34H35.1875V36.1875H33V34Z" fill="#EBEBEB"/>
<path d="M38.4688 39.4688H40.6562V41.6562H38.4688V39.4688Z" fill="#EBEBEB"/>
<path d="M33 44.9375H35.1875V47.125H33V44.9375Z" fill="#EBEBEB"/>
<path d="M61.4375 0.09375H30.8125C29.6526 0.0950527 28.5405 0.556407 27.7203 1.3766C26.9002 2.19679 26.4388 3.30883 26.4375 4.46875V5.5625H28.625V4.46875C28.6257 3.8888 28.8564 3.3328 29.2665 2.92271C29.6766 2.51263 30.2325 2.28194 30.8125 2.28125H45.0312V25.25H47.2188V2.28125H61.4375C62.0174 2.28194 62.5735 2.51263 62.9835 2.92271C63.3936 3.3328 63.6243 3.8888 63.625 4.46875V59.1562C63.6243 59.7362 63.3936 60.2922 62.9835 60.7023C62.5735 61.1124 62.0174 61.3431 61.4375 61.3438H51.5938V63.5312H54.1991L56.0843 67.3017C56.1751 67.4833 56.3147 67.6361 56.4875 67.7429C56.6603 67.8497 56.8594 67.9062 57.0625 67.9062H60.3438C60.6338 67.9062 60.912 67.791 61.1171 67.5859C61.3223 67.3808 61.4375 67.1026 61.4375 66.8125V63.5312C62.5974 63.5299 63.7095 63.0686 64.5297 62.2484C65.3498 61.4282 65.8112 60.3162 65.8125 59.1562V4.46875C65.8112 3.30883 65.3498 2.19679 64.5297 1.3766C63.7095 0.556407 62.5974 0.0950527 61.4375 0.09375ZM59.25 65.7188H57.7384L56.6447 63.5312H59.25V65.7188Z" fill="#EBEBEB"/>
<path d="M7.84374 23.0625H17.6875V25.25H19.875V23.0625H29.7187C29.87 23.0625 30.0197 23.0311 30.1582 22.9703C30.2968 22.9095 30.4212 22.8206 30.5236 22.7093C30.626 22.5979 30.7043 22.4666 30.7533 22.3235C30.8024 22.1803 30.8212 22.0286 30.8087 21.8778L29.7149 8.75283C29.6921 8.47945 29.5674 8.22461 29.3655 8.03886C29.1636 7.85311 28.8993 7.75001 28.625 7.75H19.875V5.5625H17.6875V7.75H8.93749C8.66315 7.75001 8.39884 7.85311 8.19696 8.03886C7.99508 8.22461 7.87037 8.47945 7.84757 8.75283L6.75382 21.8778C6.74124 22.0286 6.76008 22.1803 6.80914 22.3235C6.85821 22.4666 6.93643 22.5979 7.03887 22.7093C7.1413 22.8206 7.26572 22.9095 7.40426 22.9703C7.5428 23.0311 7.69245 23.0625 7.84374 23.0625ZM9.94387 9.9375H27.6186L28.5301 20.875H9.03237L9.94387 9.9375Z" fill="#EBEBEB"/>
</svg>
