<svg width="40" height="40" viewBox="0 0 40 40" fill="none" xmlns="http://www.w3.org/2000/svg">
<rect width="40" height="40" rx="20" fill="#0DC143"/>
<path d="M24.6 22.025C24.4 21.925 23.1 21.325 22.9 21.225C22.7 21.125 22.5 21.125 22.3 21.325C22.1 21.525 21.7 22.125 21.5 22.325C21.4 22.525 21.2 22.525 21 22.425C20.3 22.125 19.6 21.725 19 21.225C18.5 20.725 18 20.125 17.6 19.525C17.5 19.325 17.6 19.125 17.7 19.025C17.8 18.925 17.9 18.725 18.1 18.625C18.2 18.525 18.3 18.325 18.3 18.225C18.4 18.125 18.4 17.925 18.3 17.825C18.2 17.725 17.7 16.525 17.5 16.025C17.4 15.325 17.2 15.325 17 15.325H16.5C16.3 15.325 16 15.525 15.9 15.625C15.3 16.225 15 16.925 15 17.725C15.1 18.625 15.4 19.525 16 20.325C17.1 21.925 18.5 23.225 20.2 24.025C20.7 24.225 21.1 24.425 21.6 24.525C22.1 24.725 22.6 24.725 23.2 24.625C23.9 24.525 24.5 24.025 24.9 23.425C25.1 23.025 25.1 22.625 25 22.225L24.6 22.025ZM27.1 12.925C23.2 9.025 16.9 9.025 13 12.925C9.8 16.125 9.2 21.025 11.4 24.925L10 30.025L15.3 28.625C16.8 29.425 18.4 29.825 20 29.825C25.5 29.825 29.9 25.425 29.9 19.925C30 17.325 28.9 14.825 27.1 12.925ZM24.4 26.925C23.1 27.725 21.6 28.225 20 28.225C18.5 28.225 17.1 27.825 15.8 27.125L15.5 26.925L12.4 27.725L13.2 24.725L13 24.425C10.6 20.425 11.8 15.425 15.7 12.925C19.6 10.425 24.6 11.725 27 15.525C29.4 19.425 28.3 24.525 24.4 26.925Z" fill="white"/>
</svg>
